<svg width="142" height="133" viewBox="0 0 142 133" fill="none" xmlns="http://www.w3.org/2000/svg">
<path d="M89.9575 29.4614H87.2263C86.3531 29.4614 85.4954 29.7964 84.8787 30.3789C84.2801 30.9395 83.9562 31.6724 83.964 32.3229L78.6001 69.4998C78.398 70.888 79.108 72.5238 80.3026 73.3927C80.3026 73.3927 82.5025 74.9363 83.6245 75.6692L83.8966 75.7784L83.9484 103.381C83.9484 105.07 85.4151 106.451 87.2263 106.451H89.9575C91.7636 106.451 93.238 105.075 93.238 103.381V32.5268C93.2303 30.8376 91.7636 29.4614 89.9575 29.4614ZM82.3004 70.9608C82.0491 70.7764 81.8055 70.206 81.8418 69.9124L87.0087 34.0509C87.1305 33.2087 87.8353 32.5268 88.5893 32.5268C89.3434 32.5268 89.9523 33.2136 89.9523 34.063V84.2147H87.1901L87.1719 75.0868C87.1719 74.6475 86.9128 74.1645 86.5397 73.9072L82.3004 70.9608ZM88.5893 103.378C87.8353 103.374 87.2238 102.692 87.2238 101.842L87.1979 89.0663H89.9523V101.842C89.9549 102.694 89.3434 103.378 88.5893 103.378Z" fill="#010002"/>
<path d="M65.7009 32.5268C63.9259 32.5268 62.4748 33.9029 62.4748 35.5969V49.0595C62.4748 49.909 61.9721 50.5934 61.3502 50.5934C60.7309 50.5934 60.2256 49.909 60.2256 49.062C60.223 45.2151 60.223 35.4731 60.223 35.4731C60.223 33.7111 58.3159 32.5268 56.432 32.5268C54.7115 32.5268 52.7369 33.9004 52.7369 35.6624V49.0911C52.7369 49.9405 52.2342 50.6249 51.6123 50.6249C50.993 50.6249 50.4903 49.9405 50.4903 49.0911V35.5969C50.4903 33.9053 49.0651 32.5268 47.3135 32.5268C46.2925 32.5268 42.5015 33.2961 42.5015 35.5969V52.4161C42.5015 53.2655 42.7011 55.0033 43.4447 56.1391C44.5434 57.8089 48.0027 60.2505 53.1852 61.1023C52.6151 61.6533 52.2627 62.4008 52.2627 63.2235V103.378C52.2627 105.068 53.732 106.449 55.5407 106.449H58.2718C60.0805 106.449 61.5523 105.072 61.5523 103.378V89.0687H61.5575V84.2147H61.5523V63.2235C61.5523 62.3959 61.1973 61.6484 60.6273 61.0951C65.2682 60.3039 68.7068 58.1535 69.8288 56.0857C70.5258 54.8018 70.5647 52.802 70.5647 52.4161V35.5969C70.5673 33.2985 66.7322 32.5268 65.7009 32.5268ZM58.2822 101.845C58.2822 102.694 57.6707 103.381 56.9166 103.381C56.1626 103.381 55.5484 102.694 55.5484 101.845V89.0687H58.2822V101.845ZM55.5484 84.2147V64.7574C55.5484 63.908 56.16 63.2211 56.914 63.2211C57.6681 63.2211 58.277 63.908 58.277 64.7574L58.2796 84.2147H55.5484ZM67.2893 52.4137C67.2893 53.2874 67.1235 54.3091 66.911 54.6926C66.2166 55.9692 62.5707 58.3598 56.9166 58.3598C51.1511 58.3598 47.1217 55.8649 46.2433 54.5276C46.0049 54.1635 45.7846 53.1539 45.7846 52.4137V36.0411C46.1992 35.8299 46.9688 35.5993 47.2202 35.5945V50.591C47.2202 52.2826 48.6868 53.683 50.4411 53.6805H52.7162C54.5223 53.6805 55.9941 52.3481 55.9941 50.6565V35.8105C56.1004 35.711 56.3388 35.5993 56.5383 35.5945C56.6756 35.5945 56.8415 35.6455 56.9477 35.7013V50.4648C56.9477 52.6709 58.391 53.6587 59.8162 53.6587H62.4774C64.2835 53.6587 65.7553 52.2826 65.7553 50.5885L65.7035 35.5921C66.0378 35.5945 66.8618 35.8299 67.2893 36.0459V52.4137Z" fill="#010002"/>
<path d="M71 0C31.8515 0 0 29.8328 0 66.5C0 103.167 31.8515 133 71 133C110.148 133 142 103.167 142 66.5C142 29.8328 110.148 0 71 0ZM71 128.148C34.7097 128.148 5.18248 100.493 5.18248 66.5024C5.18248 32.5122 34.7097 4.85644 71 4.85644C107.29 4.85644 136.818 32.5122 136.818 66.5024C136.818 100.493 107.29 128.148 71 128.148Z" fill="#010002"/>
<path d="M70.9974 12.9214C39.4542 12.9214 13.7906 36.9585 13.7906 66.5024C13.7906 96.0488 39.4516 120.083 70.9974 120.083C102.543 120.083 128.204 96.0488 128.204 66.5024C128.204 36.9585 102.541 12.9214 70.9974 12.9214ZM70.9974 117.656C40.882 117.656 16.3818 94.7091 16.3818 66.5024C16.3818 38.2957 40.882 15.3484 70.9974 15.3484C101.113 15.3484 125.613 38.2957 125.613 66.5024C125.613 94.7091 101.11 117.656 70.9974 117.656Z" fill="#010002"/>
</svg>
